<svg width="110" height="110" viewBox="0 0 110 110" fill="none" xmlns="http://www.w3.org/2000/svg">
<rect width="110" height="110" fill="#FFFD01"/>
<path d="M22.5846 46.0789C22.3523 45.5153 22.1583 45.0517 21.9595 44.5767C21.4465 44.7149 21.6907 45.111 21.6901 45.3553C21.6721 52.2752 21.6785 59.1953 21.6659 66.1153C21.6648 66.6799 21.7768 67.187 22.0122 67.6984C22.4069 68.5557 21.9717 69.1538 21.2196 69.4537C20.4104 69.7765 19.7611 69.4422 19.4855 68.6032C19.3306 68.1318 19.2233 67.6205 19.2222 67.1269C19.205 58.9712 18.9836 50.8142 19.364 42.6607C19.4114 41.6439 19.4984 40.6587 20.141 39.7968C20.8942 38.7865 21.6342 38.7206 22.4642 39.6928C23.0931 40.4293 23.5084 41.3041 23.911 42.1801C26.1005 46.9441 27.4084 52.0014 28.8692 57.0077C29.6099 59.5463 30.3457 62.0863 31.1864 64.6173C31.684 62.4488 31.7183 60.2477 31.838 58.0642C32.1491 52.3896 32.2803 46.7087 32.1804 41.0246C32.1661 40.2132 32.1439 39.3365 33.2298 39.2847C34.4099 39.2283 34.6318 40.1248 34.6463 41.0608C34.7345 46.7453 34.5092 52.423 34.2319 58.0987C34.082 61.1643 33.9701 64.235 33.5197 67.276C33.4094 68.0204 33.5106 68.9129 32.7893 69.4114C31.5516 70.2667 30.3106 69.7965 30.0082 68.279C28.4781 60.599 25.272 53.4826 22.5846 46.0789Z" fill="#1A1A1A"/>
<path d="M62.1604 70.3202C59.8791 67.1952 59.1521 63.5785 58.218 60.0486C57.6633 57.9521 57.2239 55.8253 56.685 53.5076C55.6227 55.5945 55.2004 57.6395 55.152 59.7445C55.0805 62.8576 55.1265 65.9734 55.1006 69.0878C55.094 69.8793 55.3042 70.8933 54.0251 70.8995C52.9092 70.9049 52.5293 70.1467 52.5356 69.1571C52.5836 61.6489 52.288 54.1333 53.0823 46.6414C53.2704 44.867 53.344 43.0792 53.4242 41.2954C53.4542 40.6303 53.4383 39.9719 54.1571 39.6675C54.6947 39.4398 55.2487 39.5182 55.7186 39.8852C56.3086 40.346 56.2694 40.9184 56.1292 41.6126C55.5394 44.5324 55.705 47.4909 55.9352 50.5136C56.6695 49.0742 57.3792 47.6216 58.1445 46.1987C59.0547 44.5063 60.0001 42.8324 60.9589 41.1669C61.184 40.7758 61.4808 40.401 61.8206 40.1058C62.4271 39.5793 63.0414 39.9006 63.5813 40.2613C64.1721 40.6561 64.0455 41.155 63.7145 41.6913C62.5603 43.5616 61.5472 45.531 60.2606 47.304C58.8016 49.3144 58.7558 51.5059 59.136 53.7245C59.8095 57.6545 61.0195 61.4503 62.4218 65.1838C62.8962 66.4467 63.7871 67.4556 64.4154 68.62C64.7721 69.2811 64.9875 70.044 64.2983 70.635C63.5679 71.2612 62.857 71.033 62.1604 70.3202Z" fill="#1A1A1A"/>
<path d="M77.7505 43.634C78.2631 48.1762 78.9052 52.5791 79.2317 57.0051C79.5188 60.8965 80.1442 64.7221 80.7876 68.5561C80.8976 69.2115 81.0427 69.9697 80.371 70.4625C79.8697 70.8302 79.3217 70.6384 78.8 70.4334C78.1311 70.1704 78.001 69.6234 78.001 68.9846C78.0009 67.4206 77.6598 65.893 77.4916 64.3471C77.4119 63.6141 77.0688 63.3532 76.3703 63.24C72.6807 62.6424 72.6876 62.6277 72.0925 66.3725C71.9418 67.3206 71.817 68.2801 71.5635 69.2024C71.3215 70.0827 70.7333 70.6682 69.7183 70.3855C68.6901 70.0991 68.6162 69.4123 68.863 68.4511C70.8568 60.6849 72.4973 52.8474 73.4562 44.8796C73.6311 43.4256 73.8001 41.9698 73.9209 40.5107C74.0355 39.1259 74.9501 39.1511 75.9796 39.2074C77.0057 39.2636 77.6318 39.6034 77.6119 40.7595C77.5962 41.6736 77.6948 42.5896 77.7505 43.634Z" fill="#1A1A1A"/>
<path d="M100.708 59.5027C100.666 62.1961 100.659 64.7621 100.58 67.3259C100.552 68.2363 100.862 68.5149 101.761 68.4255C102.715 68.3305 103.686 68.3564 104.648 68.3857C105.242 68.4037 105.737 68.6831 105.823 69.3342C105.918 70.0438 105.498 70.5106 104.861 70.6341C103.048 70.9856 101.204 70.9571 99.3924 70.688C98.4221 70.5439 98.2787 69.6655 98.2318 68.7632C97.8772 61.9399 98.1035 55.1183 98.2141 48.2955C98.24 46.6949 98.1507 45.0913 98.0759 43.4908C98.0392 42.7062 98.0396 41.926 98.2402 41.171C98.4866 40.244 99.0646 39.5941 100.094 39.6506C101.659 39.7365 103.193 40.0514 104.635 40.6762C105.23 40.9339 105.846 41.3544 105.458 42.1455C105.122 42.8336 104.584 43.3285 103.69 43.0577C102.78 42.7823 101.643 42.0472 100.978 42.5718C100.331 43.0829 100.784 44.3781 100.732 45.326C100.636 47.0631 100.658 48.8064 100.588 50.5454C100.555 51.3506 100.777 51.7195 101.673 51.6112C102.299 51.5355 102.96 51.6001 103.586 51.7122C104.165 51.8161 104.578 52.1844 104.564 52.8541C104.55 53.5052 104.139 53.8569 103.582 54.0295C103.285 54.1215 102.946 54.0992 102.627 54.0927C100.658 54.0531 100.674 54.0493 100.73 56.0774C100.76 57.1755 100.722 58.2754 100.708 59.5027Z" fill="#1A1A1A"/>
<path d="M5.52776 68.1554C5.62982 67.3079 6.02083 66.8778 6.81282 66.938C7.59136 66.9972 7.75159 66.5542 7.70856 65.9125C7.19898 58.3101 7.66621 50.7015 7.58256 43.0961C7.56763 41.7406 7.26407 41.0106 5.72821 41.3184C5.20066 41.4241 4.60785 41.3543 4.23291 40.8361C3.69501 40.0926 4.1159 39.2229 5.21623 39.1035C6.48878 38.9653 7.78333 39.0189 9.06849 39.0095C10.2169 39.0011 11.3675 38.9823 12.5132 39.0427C13.1185 39.0745 13.7772 39.2723 13.7171 40.063C13.6656 40.7392 13.1464 41.0659 12.4937 41.1634C12.4486 41.1702 12.4014 41.1631 12.3563 41.17C11.6083 41.2834 10.56 40.7958 10.1781 41.4415C9.84817 41.9992 10.2312 42.9503 10.2205 43.7265C10.1402 49.5912 9.85418 55.4543 10.1307 61.3215C10.1976 62.7399 10.2663 64.1653 10.1968 65.5808C10.1469 66.598 10.5161 66.8648 11.4515 66.7215C11.898 66.6531 12.3694 66.7046 12.8252 66.7473C13.4139 66.8025 13.9183 67.0294 13.993 67.699C14.0759 68.4421 13.6848 69.0804 13.0132 69.1539C10.7766 69.3991 8.52443 69.3116 6.2838 69.1201C5.86282 69.0841 5.56301 68.7323 5.52776 68.1554Z" fill="#1A1A1A"/>
<path d="M85.0196 39.5026C87.3895 39.6238 89.6325 39.7474 91.8762 39.8572C92.6689 39.896 93.4488 40.0514 93.4062 41.0199C93.3641 41.9751 92.6159 42.2519 91.7461 42.2793C91.0836 42.3003 90.2902 41.6633 89.812 42.2457C89.3612 42.7946 89.652 43.6634 89.6995 44.3818C90.1619 51.3663 90.6548 58.3488 91.1266 65.3327C91.1944 66.3363 91.2018 67.3442 91.2276 68.3504C91.2529 69.3379 90.7127 70.0069 89.7885 70.0148C88.9014 70.0224 88.7332 69.2669 88.6937 68.4402C88.2846 59.8978 87.8315 51.3576 87.4177 42.8154C87.3846 42.1319 87.1987 41.8185 86.4758 41.8274C85.931 41.8341 85.3719 41.7628 84.8422 41.633C84.2261 41.4819 83.4699 41.3149 83.4913 40.504C83.5128 39.6882 84.2278 39.5661 85.0196 39.5026Z" fill="#1A1A1A"/>
<path d="M46.2558 56.2634C48.1987 60.2657 48.284 64.2031 46.2638 68.0821C45.4012 69.7384 43.9271 70.6091 42.0368 70.7577C41.1696 70.8259 40.5244 70.4944 40.0694 69.7877C39.8323 69.4196 39.8115 69.0277 40.0769 68.6315C40.3306 68.2529 40.6406 68.305 41.0346 68.351C43.391 68.6265 44.0743 68.1331 44.7895 65.845C45.831 62.5133 45.4465 59.3344 43.8317 56.1648C44.6224 55.5859 45.3887 55.9022 46.2558 56.2634Z" fill="#1A1A1A"/>
<path d="M43.0899 54.7149C40.8862 51.4391 39.3596 48.0215 39.9533 44.0091C40.1862 42.4357 40.76 41.0014 41.9275 39.8801C43.0797 38.7734 44.7293 38.7153 45.7853 39.6783C46.2288 40.0827 46.4698 40.5635 46.2359 41.1443C45.9815 41.776 45.3697 41.9006 44.8497 41.7004C43.5447 41.1981 43.0769 42.0249 42.7158 42.9561C41.6697 45.6535 42.0952 48.2508 43.3709 50.7623C43.681 51.3728 44.0335 51.9618 44.3806 52.6584C43.9788 53.4097 43.903 54.2696 43.0899 54.7149Z" fill="#1A1A1A"/>
<path d="M43.0068 54.7884C43.7032 54.258 43.3716 53.1599 44.2987 52.7809C45.211 53.7901 45.6885 55.0038 46.3083 56.2435C45.5292 56.4375 44.7722 56.2373 43.8946 56.0706C43.5252 55.672 43.2722 55.275 43.0068 54.7884Z" fill="#1A1A1A"/>
<path d="M73.2444 61.0692C73.0604 58.6056 73.7101 56.3055 74.0664 53.9704C74.4918 51.1824 75.0129 48.409 75.7508 45.6371C76.0326 48.3093 76.3672 50.9774 76.5806 53.6551C76.7693 56.0232 76.7992 58.4035 76.9506 60.7751C76.9986 61.5274 76.7565 61.7212 76.0334 61.6373C75.1219 61.5316 74.2124 61.4529 73.2444 61.0692Z" fill="#FFFD01"/>
</svg>
